<svg width="334" height="289" viewBox="0 0 334 289" fill="none" xmlns="http://www.w3.org/2000/svg">
<path d="M249.418 144.318L331.329 192.424L249.418 240.531L166.586 288.637V192.424L249.418 144.318Z" fill="#2C2C48"/>
<path d="M83.7524 144.318L0 192.424L83.7524 240.531L166.584 288.637V192.424L83.7524 144.318Z" fill="#2C2C48"/>
<path d="M0.919189 96.2109V192.424L83.7512 240.531V144.318L0.919189 96.2109Z" fill="#2C2C48"/>
<path d="M332.25 97.0349V192.666L249.979 240.481V144.85L332.25 97.0349Z" fill="#99A5FF"/>
<path d="M333.24 96.0278V192.241L249.979 240.348V144.134L333.24 96.0278Z" fill="#2C2C48"/>
<path d="M166.523 96.028L83.2614 144.135L0 96.028L83.2614 47.9214L166.523 96.028Z" fill="#2C2C48"/>
<path d="M249.785 47.9214L166.523 96.028L83.2617 47.9214L166.523 0L249.785 47.9214Z" fill="#2C2C48"/>
<path d="M249.785 192.427L166.523 240.533L83.2617 192.427L166.523 144.32L249.785 192.427Z" fill="#99A5FF"/>
<path d="M249.785 144.32L166.523 192.427L83.2617 144.32L166.523 96.2134L249.785 144.32Z" fill="#99A5FF"/>
<path d="M333.046 96.0277L249.785 144.134L166.523 96.0277L249.785 47.9211L333.046 96.0277Z" fill="#2C2C48"/>
</svg>
