<svg width="93" height="81" viewBox="0 0 93 81" fill="none" xmlns="http://www.w3.org/2000/svg">
<path d="M23.2097 40.1848L0.116721 53.5798L23.2097 67.0342L46.3249 80.3696V53.6095L23.2097 40.1848Z" fill="#F0F0F0"/>
<path d="M69.4394 40.1848L92.9274 53.6095L69.7654 67.1142L46.3242 80.3696V66.9747V53.6095L69.4394 40.1848Z" fill="#F0F0F0"/>
<path d="M69.6322 53.639L46.3971 67.0637L23.1621 53.639L46.3971 40.2144L69.6322 53.639Z" fill="#D9D9DE"/>
<path d="M69.4863 40.1847L46.3971 53.6392L23.1621 40.1847L46.3242 26.7898L69.4863 40.1847Z" fill="#D9D9DE"/>
<path d="M0 26.7898V53.6392L23.1152 67.0639L23.1621 40.1847L0 26.7898Z" fill="#F0F0F0"/>
<path d="M92.9275 26.7898L93.0004 53.6392L69.7654 67.0639L69.4863 40.1847L92.9275 26.7898Z" fill="#F0F0F0"/>
<path d="M46.3242 26.79L23.1621 40.1849L0 26.79L23.1621 13.395L46.3242 26.79Z" fill="#F0F0F0"/>
<path d="M69.6322 13.4247L46.3242 26.7899L23.1621 13.3949L46.3971 0L69.6322 13.4247Z" fill="#F0F0F0"/>
<path d="M92.9274 26.7902L69.4863 40.1851L46.3242 26.7902L69.4197 13.3655L92.9274 26.7902Z" fill="#F0F0F0"/>
</svg>
